<svg xmlns="http://www.w3.org/2000/svg" viewBox="0 0 650 514" width="64" height="64">
  <path fill="#ffffff" d="M320 32c-8.1 0-16.1 1.4-23.7 4.1L15.8 137.4C6.3 140.9 0 149.9 0 160s6.3 19.1 15.8 22.6l57.9 20.9C57.3 229.3 48 259.8 48 292.1v62.5c0 26.5 21.5 48 48 48h32c26.5 0 48-21.5 48-48V310.5c0-13.1-10.7-23.8-23.8-23.8c-13.1 0-23.8 10.7-23.8 23.8v44.1c0 8.8-7.2 16-16 16h-32c-8.8 0-16-7.2-16-16V292.1c0-38.2 16.8-72.5 43.3-96l46.4 16.7 152.1 54.8c7.6 2.7 15.6 4.1 23.7 4.1s16.1-1.4 23.7-4.1L624.2 182.6c9.5-3.4 15.8-12.5 15.8-22.6s-6.3-19.1-15.8-22.6L343.7 36.1C336.1 33.4 328.1 32 320 32zM128 408c0 35.3 86 72 192 72s192-36.7 192-72L496.7 262.6 354.5 314c-11.1 4-22.8 6-34.5 6s-23.5-2-34.5-6L143.3 262.6 128 408z"/>
</svg>